<?xml version="1.0" encoding="UTF-8" standalone="no"?>
<!-- Generator: Adobe Illustrator 18.0.0, SVG Export Plug-In . SVG Version: 6.00 Build 0)  -->

<svg
   xmlns:dc="http://purl.org/dc/elements/1.1/"
   xmlns:cc="http://creativecommons.org/ns#"
   xmlns:rdf="http://www.w3.org/1999/02/22-rdf-syntax-ns#"
   xmlns:svg="http://www.w3.org/2000/svg"
   xmlns="http://www.w3.org/2000/svg"
   xmlns:sodipodi="http://sodipodi.sourceforge.net/DTD/sodipodi-0.dtd"
   xmlns:inkscape="http://www.inkscape.org/namespaces/inkscape"
   version="1.1"
   id="Calque_1"
   x="0px"
   y="0px"
   viewBox="0 0 640 280"
   enable-background="new 0 0 640 280"
   xml:space="preserve"
   inkscape:version="0.91 r13725"
   sodipodi:docname="logo.svg"><metadata
     id="metadata3434"><rdf:RDF><cc:Work
         rdf:about=""><dc:format>image/svg+xml</dc:format><dc:type
           rdf:resource="http://purl.org/dc/dcmitype/StillImage" /></cc:Work></rdf:RDF></metadata><defs
     id="defs3432" /><sodipodi:namedview
     pagecolor="#ffffff"
     bordercolor="#666666"
     borderopacity="1"
     objecttolerance="10"
     gridtolerance="10"
     guidetolerance="10"
     inkscape:pageopacity="0"
     inkscape:pageshadow="2"
     inkscape:window-width="1920"
     inkscape:window-height="1016"
     id="namedview3430"
     showgrid="false"
     inkscape:zoom="2.1484375"
     inkscape:cx="321.86182"
     inkscape:cy="140"
     inkscape:window-x="0"
     inkscape:window-y="27"
     inkscape:window-maximized="1"
     inkscape:current-layer="Calque_1" /><polygon
     fill="#022B37"
     points="107,170.8 67.7,72 46.9,72 100,204 113.9,204 167,72 146.6,72 "
     id="polygon3414"
     style="opacity:0.1" /><polygon
     fill="#022B37"
     points="171,204 251,204 251,184 190,184 190,147 250,147 250,128 190,128 190,91 251,91 251,72 171,72 "
     id="polygon3416"
     style="opacity:0.1" /><path
     fill="#022B37"
     d="M351.1,113.3c0-21-14.4-42.3-43.1-42.3h-48v133h19V91h29.1c16.1,0,24,11.1,24,22.4c0,11.5-7.9,22.6-24,22.6  H286v9.6l48,58.4h24.7L317,154C339.6,150,351.1,132,351.1,113.3"
     id="path3418"
     style="opacity:0.1" /><path
     fill="#022B37"
     d="M407.5,204c0-0.3,0-0.7,0-1c0-6,1.7-11.7,4.5-16.6V91h39V71h-99v20h41v113H407.5z"
     id="path3420"
     style="opacity:0.1" /><path
     fill="#623C94"
     d="M458,203c0-9.9-8.1-18-18-18s-18,8.1-18,18s8.1,18,18,18S458,212.9,458,203"
     id="path3422"
     style="opacity:0.1" /><g
     id="g3424"
     style="opacity:0.1"><path
       fill="#623C94"
       d="M577.4,72h-6.2h-17l-27.5,37.8L499.1,72h-17h-6.4h-17c12.1,16,33.6,46.8,47.8,66.3l-37,50.9   c2,4.2,3.1,8.9,3.1,13.8c0,0.3,0,0.7,0,1h3.2h6.4H499l95.2-132H577.4z"
       id="path3426"
       style="" /><path
       fill="#623C94"
       d="M557.7,153.5l-20.1,27.9l16.5,22.6h17h6.2h17C584.7,190.3,570.3,170.7,557.7,153.5z"
       id="path3428"
       style="" /></g></svg>